Coordinates
version=1
nRows=17
nColumns=33
inDegrees=yes

Units are S.I. units (second, meters, Newtons, ...)
Angles are in degrees.

endheader
time	ground_thorax_rot_x	ground_thorax_rot_y	ground_thorax_rot_z	ground_thorax_tx	ground_thorax_ty	ground_thorax_tz	clav_prot_r	clav_elev_r	scapula_abduction_r	scapula_elevation_r	scapula_upward_rot_r	scapula_winging_r	shoulder_elv_r	plane_of_elev_r	axial_rot_r	elbow_flexion_r	pro_sup_r	wrist_flex_r	wrist_dev_r	clav_prot_l	clav_elev_l	scapula_abduction_l	scapula_elevation_l	scapula_upward_rot_l	scapula_winging_l	shoulder_elv_l	plane_of_elev_l	axial_rot_l	elbow_flexion_l	pro_sup_l	wrist_flex_l	wrist_dev_l	
1.8000	39.937754	10.193649	9.744347	-79.593495	779.861648	19.647525	10.775237	39.000933	45.000000	36.168020	-4.020648	-5492.972060	-2102.833229	27.778282	62.434778	2888.064535	24.065565	16.940042	11.528063	6.563116	-45.000000	-44.999999	45.000000	-31.206403	801.651801	-2258.780649	134.810433	-180.000000	-352.748394	40.733318	9.522256	-19.398429	
1.8100	39.956448	10.082392	9.700324	-79.684026	779.790641	19.634000	10.768806	38.992486	45.000000	36.125252	-3.923501	-5492.977898	-2102.875866	27.788222	62.532488	2888.113215	24.155105	16.937267	11.480353	6.385318	-45.000000	-44.999999	45.000000	-31.111916	801.643158	-2258.788751	134.765967	-180.000000	-352.727615	40.661884	9.444426	-19.378907	
1.8200	39.974753	10.009307	9.699594	-79.802050	779.724983	19.620046	10.753010	38.980233	45.000000	36.087534	-3.860399	-5492.993252	-2102.908572	27.779370	62.597142	2888.152118	24.241701	16.947545	11.452817	6.300760	-45.000000	-44.999998	45.000000	-31.057611	801.630172	-2258.803640	134.741787	-180.000000	-352.720866	40.606202	9.418641	-19.370973	
1.8300	39.989480	9.933978	9.699147	-79.980207	779.635808	19.600320	10.730781	38.963785	45.000000	36.048039	-3.790283	-5493.012175	-2102.936403	27.769078	62.673138	2888.194511	24.358567	16.966582	11.425784	6.212881	-45.000000	-44.999997	45.000000	-31.001395	801.627185	-2258.817545	134.725015	-180.000000	-352.712944	40.536934	9.400514	-19.366019	
1.8400	40.003776	9.863698	9.705426	-80.221546	779.532316	19.575347	10.708601	38.941659	45.000000	36.009881	-3.744708	-5493.034688	-2102.960013	27.769951	62.737864	2888.233165	24.489971	16.982724	11.397892	6.154182	-45.000000	-44.999995	45.000000	-30.967051	801.634993	-2258.825476	134.709306	-180.000000	-352.704589	40.465892	9.382684	-19.358782	
1.8500	40.015957	9.813040	9.731351	-80.532637	779.414867	19.543809	10.684804	38.920014	45.000000	35.973173	-3.719812	-5493.059098	-2102.970262	27.763867	62.779993	2888.268267	24.628310	17.010294	11.386144	6.125624	-45.000000	-44.999991	45.000000	-30.955121	801.653824	-2258.836452	134.706169	-180.000000	-352.691392	40.398500	9.389376	-19.362519	
1.8600	40.030691	9.766846	9.754885	-80.911619	779.287532	19.504513	10.669702	38.895233	45.000000	35.941601	-3.728212	-5493.088768	-2102.979257	27.779207	62.795058	2888.300095	24.759960	17.022837	11.369036	6.116235	-45.000000	-44.999983	45.000000	-30.968278	801.686751	-2258.841336	134.693668	-180.000000	-352.671863	40.335006	9.378916	-19.359379	
1.8700	40.043971	9.743942	9.797143	-81.352783	779.155553	19.456994	10.658351	38.877874	45.000000	35.914266	-3.761301	-5493.112709	-2102.972858	27.783351	62.775013	2888.330712	24.871302	17.046440	11.375797	6.125371	-45.000000	-44.999970	45.000000	-31.005581	801.728009	-2258.851609	134.692506	-180.000000	-352.643917	40.282222	9.389271	-19.369582	
1.8800	40.060125	9.722187	9.830302	-81.850621	779.020885	19.400615	10.658118	38.862329	45.000000	35.896365	-3.815312	-5493.142983	-2102.972176	27.806440	62.725416	2888.362709	24.954318	17.050258	11.373640	6.134632	-45.000000	-44.999946	45.000000	-31.057517	801.781256	-2258.856989	134.679410	-180.000000	-352.612082	40.233412	9.375710	-19.370276	
1.8900	40.074417	9.726037	9.883062	-82.399790	778.888310	19.336271	10.657296	38.859587	45.000000	35.886884	-3.874391	-5493.165334	-2102.951826	27.802351	62.648150	2888.402198	25.004432	17.074893	11.401415	6.146856	-45.000000	-44.999903	45.000000	-31.122204	801.838201	-2258.873226	134.685768	-180.000000	-352.573580	40.191135	9.387797	-19.388095	
1.9000	40.089900	9.730464	9.927460	-82.995804	778.762750	19.265788	10.663943	38.860426	45.000000	35.892094	-3.953010	-5493.191013	-2102.937650	27.810512	62.551536	2888.447368	25.019107	17.083067	11.418581	6.163905	-45.000000	-44.999827	45.000000	-31.198812	801.902991	-2258.879876	134.684355	-180.000000	-352.534091	40.149039	9.378899	-19.395434	
1.9100	40.101632	9.745620	9.975885	-83.634964	778.649086	19.192068	10.673886	38.874231	45.000000	35.905851	-4.037172	-5493.214305	-2102.917626	27.810463	62.438636	2888.494606	25.000708	17.105345	11.454435	6.183256	-45.000000	-44.999689	45.000000	-31.288259	801.974533	-2258.881371	134.686909	-180.000000	-352.488549	40.109007	9.387536	-19.414703	
1.9200	40.116715	9.754243	10.007205	-84.314369	778.552145	19.118179	10.688660	38.893325	45.000000	35.933716	-4.134867	-5493.242826	-2102.903418	27.828721	62.317471	2888.543918	24.951944	17.108554	11.470072	6.207315	-45.000000	-44.999444	45.000000	-31.384766	802.053913	-2258.873137	134.678814	-180.000000	-352.436604	40.066118	9.372250	-19.421722	
1.9300	40.131723	9.767840	10.031994	-85.031886	778.476635	19.047052	10.708581	38.924331	45.000000	35.969619	-4.229357	-5493.282609	-2102.888252	27.850932	62.188622	2888.591353	24.878167	17.124123	11.495449	6.232667	-45.000000	-44.999003	45.000000	-31.491943	802.143273	-2258.859918	134.664078	-180.000000	-352.373080	40.023098	9.370380	-19.440010	
1.9400	40.149779	9.777020	10.047986	-85.786346	778.426881	18.981291	10.727224	38.963073	45.000000	36.020279	-4.338907	-5493.310548	-2102.863162	27.875237	62.067152	2888.645578	24.784112	17.130532	11.503838	6.259771	-45.000000	-44.998215	45.000000	-31.603331	802.233369	-2258.842579	134.652117	-180.000000	-352.301671	39.976415	9.345704	-19.447405	
1.9500	40.163755	9.789351	10.063150	-86.577722	778.406672	18.922964	10.752403	39.009923	45.000000	36.079523	-4.453069	-5493.343516	-2102.837757	27.901445	61.948670	2888.701264	24.673231	17.151192	11.518961	6.288651	-45.000000	-44.996801	45.000000	-31.726274	802.332148	-2258.813603	134.635397	-180.000000	-352.224010	39.929260	9.331253	-19.462758	
1.9600	40.179785	9.799621	10.074637	-87.406671	778.419073	18.873268	10.776205	39.065515	45.000000	36.152507	-4.575610	-5493.370001	-2102.801376	27.927653	61.841282	2888.763303	24.549383	17.173447	11.522100	6.316757	-45.000000	-44.994274	45.000000	-31.852141	802.434010	-2258.778608	134.621537	-180.000000	-352.138977	39.879422	9.302444	-19.472371	
